<svg xmlns="http://www.w3.org/2000/svg" viewBox="0 0 64 64">
  <defs>
    <linearGradient id="bg" x1="0" y1="0" x2="1" y2="1">
      <stop offset="0" stop-color="#3FB89E"/>
      <stop offset="1" stop-color="#7ED0BE"/>
    </linearGradient>
  </defs>
  <rect width="64" height="64" rx="18" fill="url(#bg)"/>
  <path d="M32 14c-6 0-9 3-13 3-4 0-6-2-6-2s-1 8 1 18c1.5 7 4 17 7 17 2.5 0 3-7 4-11 .6-2.4 4.4-2.4 5 0 1 4 1.5 11 4 11 3 0 5.5-10 7-17 2-10 1-18 1-18s-2 2-6 2c-4 0-7-3-13-3z" fill="#FFFDFB"/>
  <circle cx="46" cy="20" r="5.5" fill="#FF9E80"/>
</svg>
